<?xml version="1.0" standalone="no"?>
<!DOCTYPE svg PUBLIC "-//W3C//DTD SVG 20010904//EN"
 "http://www.w3.org/TR/2001/REC-SVG-20010904/DTD/svg10.dtd">
<svg version="1.0" xmlns="http://www.w3.org/2000/svg"
 width="298.000000pt" height="90.000000pt" viewBox="0 0 298.000000 90.000000"
 preserveAspectRatio="xMidYMid meet">

<g transform="translate(0.000000,90.000000) scale(0.100000,-0.100000)"
fill="#000000" stroke="none">
<path d="M1360 655 c0 -9 9 -15 25 -15 l25 0 0 -165 0 -165 -25 0 c-16 0 -25
-6 -25 -15 0 -11 11 -15 40 -15 l40 0 0 59 c0 41 5 62 16 72 13 11 23 4 72
-44 50 -50 54 -57 34 -57 -15 0 -22 -5 -20 -12 3 -8 27 -14 61 -16 46 -2 57 0
57 13 0 9 -9 15 -23 15 -15 0 -45 23 -86 64 l-64 65 33 28 c57 48 64 52 88 53
13 0 22 6 22 15 0 11 -13 15 -54 15 -54 0 -82 -14 -52 -26 13 -5 7 -15 -26
-45 -24 -21 -46 -38 -50 -39 -5 0 -8 52 -8 115 l0 115 -40 0 c-29 0 -40 -4
-40 -15z"/>
<path d="M210 625 c0 -11 12 -15 46 -15 53 0 55 16 -18 -171 -37 -96 -54 -128
-69 -132 -40 -11 -8 -27 52 -27 46 0 59 3 59 15 0 10 -10 15 -30 15 -35 0 -35
-2 -14 50 l16 40 87 0 87 0 16 -44 17 -45 -32 -3 c-55 -5 -35 -23 31 -26 51
-2 62 0 62 13 0 8 -9 15 -20 15 -11 0 -20 4 -20 9 0 5 -27 79 -61 165 l-61
156 -74 0 c-59 0 -74 -3 -74 -15z m169 -109 c17 -44 29 -81 27 -83 -2 -2 -35
-3 -73 -1 l-69 3 34 88 c19 49 38 85 43 80 4 -4 21 -44 38 -87z"/>
<path d="M2567 633 c-4 -3 -7 -24 -7 -45 0 -36 -2 -38 -30 -38 -20 0 -30 -5
-30 -15 0 -10 10 -15 30 -15 l30 0 0 -96 c0 -93 1 -96 31 -126 28 -29 34 -30
83 -25 30 3 68 13 85 21 36 19 43 42 9 31 -80 -25 -120 -29 -146 -14 -26 14
-27 18 -30 111 l-3 97 76 3 c41 2 75 7 75 13 0 6 -33 11 -75 13 l-75 3 0 44
c0 42 -7 54 -23 38z"/>
<path d="M660 553 c-23 -9 -60 -45 -76 -75 -41 -80 17 -185 108 -195 35 -4 50
0 81 21 l37 25 0 -45 c0 -68 -30 -94 -110 -94 -48 0 -60 -3 -60 -16 0 -14 11
-16 70 -12 60 3 74 8 98 31 27 27 27 29 30 177 l3 150 25 0 c15 0 24 6 24 15
0 11 -11 15 -40 15 -33 0 -40 -3 -40 -20 0 -18 -2 -18 -36 5 -35 24 -79 31
-114 18z m116 -57 c28 -28 34 -42 34 -76 0 -58 -50 -110 -105 -110 -55 0 -105
52 -105 110 0 34 6 48 34 76 47 47 95 47 142 0z"/>
<path d="M1806 547 c-43 -13 -67 -45 -25 -33 103 29 169 12 169 -44 l0 -29
-54 6 c-65 7 -119 -9 -146 -44 -30 -38 -26 -76 11 -107 38 -32 89 -34 144 -6
47 24 45 24 45 5 0 -11 11 -15 40 -15 29 0 40 4 40 15 0 9 -9 15 -25 15 -25 0
-25 0 -25 94 0 84 -3 98 -23 121 -27 32 -91 41 -151 22z m128 -133 c29 -11 20
-60 -15 -85 -42 -29 -119 -37 -142 -14 -32 31 -15 80 33 98 21 8 105 8 124 1z"/>
<path d="M2276 525 l-46 -35 0 31 c0 30 -1 30 -47 27 -54 -3 -65 -21 -15 -26
l32 -3 0 -105 0 -104 -40 0 c-29 0 -40 -4 -40 -15 0 -12 20 -15 120 -15 100 0
120 3 120 15 0 12 -14 15 -65 15 l-65 0 0 73 c0 70 1 73 34 99 56 45 82 54
111 38 34 -18 46 -3 16 21 -34 28 -63 24 -115 -16z"/>
<path d="M947 544 c-11 -12 3 -24 29 -24 24 0 24 -1 24 -100 0 -94 2 -103 25
-125 31 -32 77 -32 133 0 40 23 42 23 42 4 0 -14 7 -19 30 -19 20 0 30 5 30
15 0 8 -9 15 -20 15 -19 0 -20 7 -20 120 l0 120 -45 0 c-33 0 -45 -4 -45 -15
0 -10 11 -15 35 -15 l35 0 0 -78 c0 -69 -3 -81 -22 -99 -52 -47 -105 -56 -138
-23 -17 17 -20 33 -20 125 l0 105 -33 0 c-19 0 -37 -3 -40 -6z"/>
</g>
</svg>
