<?xml version="1.0" standalone="no"?>
<!DOCTYPE svg PUBLIC "-//W3C//DTD SVG 20010904//EN"
 "http://www.w3.org/TR/2001/REC-SVG-20010904/DTD/svg10.dtd">
<svg version="1.0" xmlns="http://www.w3.org/2000/svg"
 width="68.000000pt" height="90.000000pt" viewBox="0 0 68.000000 90.000000"
 preserveAspectRatio="xMidYMid meet">

<g transform="translate(0.000000,90.000000) scale(0.100000,-0.100000)"
fill="#000000" stroke="none">
<path d="M215 630 c-8 -12 8 -18 56 -22 l35 -3 -55 -144 c-46 -117 -60 -145
-80 -153 -41 -15 -10 -29 55 -26 62 3 81 21 27 26 l-32 3 17 45 16 44 87 0
c86 0 87 0 97 -27 5 -16 13 -36 17 -45 6 -15 2 -18 -24 -18 -21 0 -31 -5 -31
-15 0 -12 13 -15 59 -15 63 0 88 14 50 28 -17 7 -36 44 -83 168 l-62 159 -71
3 c-42 2 -74 -1 -78 -8z m164 -103 c17 -46 31 -86 31 -90 0 -4 -32 -7 -71 -7
-53 0 -70 3 -67 13 26 74 64 167 69 167 3 0 20 -37 38 -83z"/>
</g>
</svg>
